<?xml version="1.0" standalone="no"?>
<!DOCTYPE svg PUBLIC "-//W3C//DTD SVG 20010904//EN"
 "http://www.w3.org/TR/2001/REC-SVG-20010904/DTD/svg10.dtd">
<svg version="1.0" xmlns="http://www.w3.org/2000/svg"
 width="1200.000000pt" height="1200.000000pt" viewBox="0 0 1200.000000 1200.000000"
 preserveAspectRatio="xMidYMid meet">
<metadata>
Created by potrace 1.14, written by Peter Selinger 2001-2017
</metadata>
<g transform="translate(0.000000,1200.000000) scale(0.100000,-0.100000)"
fill="#000000" stroke="none">
<path d="M0 6000 l0 -6000 6000 0 6000 0 0 6000 0 6000 -6000 0 -6000 0 0
-6000z m10200 3300 l0 -900 -75 0 -75 0 0 825 0 825 -4050 0 -4050 0 0 -825 0
-825 -75 0 -75 0 0 900 0 900 4200 0 4200 0 0 -900z m-7712 423 c90 -66 76
-210 -24 -258 -106 -50 -221 31 -211 148 8 88 72 142 160 134 27 -2 61 -13 75
-24z m7200 0 c90 -66 76 -210 -24 -258 -106 -50 -221 31 -211 148 8 88 72 142
160 134 27 -2 61 -13 75 -24z m-3170 -1272 c47 -24 123 -105 151 -160 l21 -41
113 0 112 0 290 -116 c160 -65 292 -118 293 -120 2 -1 -33 -82 -79 -178 -123
-263 -143 -279 -354 -284 l-140 -4 0 -159 c0 -88 -2 -165 -6 -170 -4 -6 -142
58 -337 155 l-331 166 50 142 c28 79 75 212 105 297 l54 153 0 169 c0 110 4
169 10 169 6 0 28 -9 48 -19z m-1853 -801 c17 -10 75 -62 130 -114 l100 -96
588 0 587 0 423 -211 c232 -116 425 -216 429 -222 8 -13 10 -2 -54 -247 l-53
-205 -5 -481 -5 -481 -24 -35 c-39 -57 -81 -79 -146 -79 -71 0 -124 33 -155
95 -19 41 -20 60 -20 489 l0 447 -690 0 -689 0 -3 -457 -3 -458 -23 -33 c-43
-60 -84 -83 -147 -83 -72 0 -124 31 -154 93 -21 44 -21 49 -21 874 l0 829
-105 105 c-57 57 -109 116 -116 132 -16 39 -4 90 29 120 46 43 81 48 127 18z
m910 -1597 c103 -192 189 -362 192 -379 10 -62 -36 -148 -98 -179 -36 -19
-112 -19 -147 -1 -49 26 -78 69 -205 310 l-127 238 0 179 0 179 99 0 99 0 187
-347z m217 -1330 c154 -72 228 -213 228 -429 -1 -319 -172 -509 -444 -491
-107 7 -183 36 -249 97 -97 89 -137 199 -137 385 0 209 75 361 212 431 71 36
113 44 224 40 88 -2 109 -6 166 -33z m-920 -1 c49 -24 88 -73 88 -110 0 -12
-10 -33 -23 -48 l-23 -27 -92 32 c-121 42 -166 47 -233 28 -97 -28 -151 -102
-171 -232 -14 -93 1 -206 38 -282 73 -151 313 -178 340 -38 7 38 -4 63 -53
119 -55 65 -41 94 50 103 74 8 144 -4 168 -28 18 -18 20 -32 18 -122 -3 -145
-18 -214 -57 -248 -51 -46 -129 -64 -272 -64 -116 0 -129 2 -185 28 -146 68
-222 201 -232 407 -3 60 0 131 6 165 23 124 95 231 193 289 74 43 140 56 273
53 102 -2 127 -6 167 -25z m2842 7 c32 -25 33 -54 4 -122 -22 -50 -23 -64 -23
-327 l0 -275 28 -52 c56 -108 30 -137 -122 -131 -147 5 -167 30 -113 144 l27
59 0 265 0 265 -27 52 c-58 109 -31 141 118 142 68 1 86 -2 108 -20z m-1285
-14 c65 -33 100 -90 241 -389 34 -74 64 -126 69 -120 4 5 52 107 106 227 101
223 127 263 192 288 37 14 106 11 131 -7 22 -15 22 -16 22 -342 0 -245 4 -344
15 -395 22 -107 0 -147 -85 -147 -33 0 -48 6 -71 29 l-29 29 0 189 c0 181 -5
270 -16 323 -6 24 -7 24 -26 -14 -11 -22 -48 -105 -83 -185 -107 -252 -120
-271 -180 -271 -41 0 -66 37 -144 217 -41 92 -87 195 -104 228 -28 57 -30 59
-39 35 -5 -14 -11 -126 -14 -250 -3 -124 -7 -240 -10 -257 -9 -57 -101 -85
-139 -43 -19 21 -19 21 6 165 4 28 7 189 6 358 l-2 309 24 19 c28 23 90 25
130 4z m-4479 -1940 l0 -825 4050 0 4050 0 0 825 0 825 75 0 75 0 0 -900 0
-900 -4200 0 -4200 0 0 900 0 900 75 0 75 0 0 -825z m538 -252 c90 -66 76
-210 -24 -258 -106 -50 -221 31 -211 148 8 88 72 142 160 134 27 -2 61 -13 75
-24z m7200 0 c90 -66 76 -210 -24 -258 -106 -50 -221 31 -211 148 8 88 72 142
160 134 27 -2 61 -13 75 -24z"/>
<path d="M6882 8064 c-28 -19 -30 -74 -4 -97 25 -23 68 -21 92 3 26 26 25 51
-1 84 -23 29 -54 33 -87 10z"/>
<path d="M5523 4629 c-51 -15 -107 -76 -132 -144 -43 -115 -38 -304 11 -417
61 -142 236 -183 339 -79 94 95 118 349 47 513 -46 107 -154 159 -265 127z"/>
</g>
</svg>
